<svg width="400" height="400" viewBox="0 0 400 400" fill="none" xmlns="http://www.w3.org/2000/svg">
<path fill-rule="evenodd" clip-rule="evenodd" d="M200 400C310.457 400 400 310.457 400 200C400 89.5431 310.457 0 200 0C89.5431 0 0 89.5431 0 200C0 310.457 89.5431 400 200 400ZM200 375C296.65 375 375 296.65 375 200C375 103.35 296.65 25 200 25C103.35 25 25 103.35 25 200C25 296.65 103.35 375 200 375Z" fill="#02FE77"/>
<path d="M113.801 171.068C110.233 171.068 105.282 170.487 98.9493 169.324C90.0294 176.119 81.7785 179.517 74.1966 179.517C73.929 179.517 73.6614 179.517 73.3938 179.517C67.9527 179.428 63.6711 177.997 60.5492 175.225C57.5164 172.364 56 168.609 56 163.96C56 159.221 57.5164 155.376 60.5492 152.426C63.6711 149.475 68.2649 148 74.3304 148C78.3444 148 84.7667 149.341 93.5974 152.023C102.874 154.795 109.787 156.181 114.336 156.181C121.829 156.181 126.779 153.499 129.188 148.134L134.406 151.755C132.444 164.63 125.575 171.068 113.801 171.068ZM69.2461 167.983C69.2461 170.218 71.1638 171.336 74.9994 171.336C78.835 171.336 83.5179 169.905 89.0482 167.044C81.1987 165.077 75.8022 164.094 72.8586 164.094C71.8774 164.094 71.03 164.496 70.3164 165.301C69.6029 166.016 69.2461 166.91 69.2461 167.983ZM105.773 177.908L103.632 192.258H123.568C124.371 194.135 124.772 195.968 124.772 197.757C124.772 199.545 123.925 201.065 122.23 202.316C120.536 203.479 118.395 204.06 115.808 204.06H101.759L101.625 205.267C112.864 210.632 118.484 218.589 118.484 229.139C118.484 237.097 116.388 242.73 112.195 246.038C108.003 249.257 103.052 250.866 97.3438 250.866C91.635 250.866 87.2197 249.435 84.0977 246.574C80.9757 243.624 79.4147 239.734 79.4147 234.906C79.4147 234.102 79.5039 233.073 79.6823 231.822L83.2949 204.06H70.7178C71.253 198.964 71.699 195.03 72.0558 192.258H84.9005L86.3723 180.456C91.0106 178.22 94.8908 177.103 98.0127 177.103C101.135 177.103 103.721 177.371 105.773 177.908ZM101.492 238.661C103.632 238.661 105.505 237.901 107.111 236.382C108.717 234.772 109.519 232.269 109.519 228.871C109.519 222.165 106.487 217.024 100.421 213.448C98.9939 223.372 98.2357 229.586 98.1465 232.09C98.1465 234.504 98.4587 236.203 99.0831 237.186C99.7967 238.17 100.6 238.661 101.492 238.661Z" fill="#AAB4D6"/>
<path d="M149.346 251C143.905 251 139.624 249.48 136.502 246.44C133.38 243.311 131.819 239.064 131.819 233.699C131.819 232.269 134.227 211.034 139.044 169.995C140.293 159.444 143.638 152.783 149.079 150.012C151.576 148.671 154.565 148 158.043 148C169.818 148 175.705 153.454 175.705 164.362C175.705 165.256 175.66 166.195 175.571 167.178C174.679 179.159 167.186 191.364 153.093 203.792C152.647 208.173 152.156 212.42 151.621 216.533C150.551 225.742 150.015 230.838 150.015 231.822C150.015 236.471 152.022 238.796 156.036 238.796C160.407 238.796 164.466 236.292 168.212 231.285C172.048 226.189 174.991 219.707 177.043 211.839C177.846 212.107 178.961 212.867 180.388 214.118C181.815 215.281 182.796 216.309 183.331 217.203C181.904 224.624 178.693 231.732 173.698 238.527C171.2 242.014 168.034 244.875 164.198 247.111C159.827 249.704 154.877 251 149.346 251ZM154.565 190.38C162.771 181.35 166.874 173.258 166.874 166.105C166.874 161.814 165.268 159.668 162.057 159.668C160.006 159.847 158.623 161.188 157.91 163.691C157.285 166.195 156.661 170.263 156.036 175.896C155.501 181.529 155.144 185.016 154.966 186.357L154.565 190.38Z" fill="#AAB4D6"/>
<path d="M207.37 185.552C215.576 185.552 222.4 188.19 227.841 193.465C233.372 198.74 236.137 205.178 236.137 212.777C236.137 224.311 232.747 233.565 225.968 240.539C219.278 247.424 211.161 250.866 201.617 250.866C192.072 250.866 184.49 248.139 178.871 242.685C173.341 237.231 170.575 230.48 170.575 222.434C170.575 211.168 174.01 202.227 180.878 195.611C187.835 188.905 196.666 185.552 207.37 185.552ZM204.694 196.415C200.502 196.415 196.978 198.829 194.124 203.658C191.27 208.486 189.709 214.566 189.441 221.897C189.441 227.083 190.467 231.375 192.518 234.772C194.659 238.17 197.87 239.868 202.152 239.868C206.433 239.868 210.001 237.499 212.856 232.76C215.799 228.022 217.271 222.612 217.271 216.533C217.271 210.453 216.245 205.625 214.194 202.048C212.142 198.293 208.976 196.415 204.694 196.415Z" fill="#AAB4D6"/>
<path d="M295.882 228.737C295.882 235.174 298.603 238.393 304.044 238.393C304.222 238.393 304.356 238.393 304.445 238.393C306.943 238.393 309.173 237.052 311.135 234.37C313.097 231.687 314.569 228.335 315.55 224.311C317.691 216.086 318.762 208.62 318.762 201.914H317.557C313.811 201.914 310.912 201.065 308.86 199.366C306.72 197.399 305.649 195.03 305.649 192.258C305.649 189.486 306.497 187.251 308.191 185.552C310.243 183.674 312.785 182.736 315.818 182.736C322.419 182.736 326.879 186.133 329.198 192.928C335.442 191.408 342.042 189.307 349 186.625V194.27C342.399 196.773 336.245 198.695 330.536 200.036C330.625 200.752 330.67 201.78 330.67 203.121C330.313 221.629 325.987 235.04 317.691 243.355C312.785 248.273 306.407 250.732 298.558 250.732C290.798 250.732 285 247.424 281.164 240.807C276.793 247.513 270.103 250.866 261.094 250.866C255.742 250.866 251.327 248.988 247.848 245.233C244.459 241.388 242.764 236.873 242.764 231.688C242.764 230.793 242.809 229.72 242.898 228.469C244.771 212.911 246.332 199.142 247.581 187.161C250.792 186.089 253.602 185.552 256.01 185.552C262.343 185.552 265.51 187.743 265.51 192.124C265.51 193.822 264.841 199.679 263.503 209.693C261.808 222.299 260.961 229.408 260.961 231.017C260.961 232.537 261.54 234.057 262.7 235.577C263.949 237.097 265.688 237.857 267.918 237.857C270.237 237.857 272.289 236.829 274.073 234.772C275.857 232.716 277.15 230.212 277.953 227.262L282.636 187.161C285.49 186.089 288.523 185.552 291.734 185.552C297.532 185.552 300.431 187.743 300.431 192.124C300.431 193.733 299.807 198.964 298.558 207.815C296.774 220.332 295.882 227.306 295.882 228.737ZM313.276 192.258C313.276 193.778 314.569 194.538 317.156 194.538C317.424 194.538 317.691 194.538 317.959 194.538C317.334 192.124 316.398 190.917 315.149 190.917C313.9 190.917 313.276 191.364 313.276 192.258Z" fill="#AAB4D6"/>
</svg>
