<svg width="33" height="16" viewBox="0 0 33 16" fill="none" xmlns="http://www.w3.org/2000/svg">
<path d="M26 4V7H29V9H26V12H24V9H21V7H24V4H26Z" fill="#005533"/>
<path fill-rule="evenodd" clip-rule="evenodd" d="M25 16C29.4183 16 33 12.4183 33 8C33 3.58172 29.4183 0 25 0C20.9204 0 17.554 3.05369 17.0619 7H11.874C11.4299 5.27477 9.86384 4 8 4C6.13616 4 4.57006 5.27477 4.12602 7H0V9H4.12602C4.57006 10.7252 6.13616 12 8 12C9.86384 12 11.4299 10.7252 11.874 9H17.0619C17.554 12.9463 20.9204 16 25 16ZM25 2C21.6863 2 19 4.68629 19 8C19 11.3137 21.6863 14 25 14C28.3137 14 31 11.3137 31 8C31 4.68629 28.3137 2 25 2ZM8 10C9.10457 10 10 9.10457 10 8C10 6.89543 9.10457 6 8 6C6.89543 6 6 6.89543 6 8C6 9.10457 6.89543 10 8 10Z" fill="#005533"/>
</svg>
