<svg width="15" height="15" viewBox="0 0 15 15" fill="none" xmlns="http://www.w3.org/2000/svg">
<path d="M9.71429 7.28572C9.71429 8.62333 8.62333 9.71429 7.28572 9.71429C5.9481 9.71429 4.85714 8.62333 4.85714 7.28572C4.85714 5.9481 5.9481 4.85714 7.28572 4.85714C8.62333 4.85714 9.71429 5.9481 9.71429 7.28572ZM14.5714 6.25167C14.5714 6.0904 14.4576 5.93862 14.2963 5.91016L12.5603 5.64453C12.4654 5.33147 12.3326 5.01842 12.1713 4.71484C12.4939 4.26897 12.8449 3.85156 13.1674 3.41518C13.2148 3.34877 13.2433 3.28237 13.2433 3.19699C13.2433 3.12109 13.2243 3.0452 13.1769 2.98828C12.7785 2.42857 12.1144 1.8404 11.6116 1.37556C11.5452 1.31864 11.4598 1.28069 11.3744 1.28069C11.2891 1.28069 11.2037 1.30915 11.1468 1.36607L9.79967 2.38114C9.52455 2.23884 9.23996 2.125 8.94587 2.03013L8.68025 0.284598C8.66127 0.123326 8.50949 0 8.33873 0H6.2327C6.06194 0 5.92913 0.11384 5.89118 0.265625C5.7394 0.834821 5.68248 1.45145 5.61607 2.03013C5.32199 2.125 5.0279 2.24833 4.75279 2.39062L3.44364 1.37556C3.36775 1.31864 3.28237 1.28069 3.19699 1.28069C2.87444 1.28069 1.59375 2.66574 1.36607 2.9788C1.31864 3.0452 1.28069 3.11161 1.28069 3.19699C1.28069 3.28237 1.31864 3.35826 1.37556 3.42466C1.72656 3.85156 2.06808 4.27846 2.39062 4.73382C2.23884 5.01842 2.11551 5.30301 2.02065 5.60658L0.256138 5.87221C0.113839 5.90067 0 6.07143 0 6.21373V8.31975C0 8.48103 0.113839 8.63281 0.275112 8.66127L2.01116 8.91741C2.10603 9.23996 2.23884 9.55301 2.40011 9.85659C2.07757 10.3025 1.72656 10.7199 1.40402 11.1562C1.35658 11.2227 1.32812 11.2891 1.32812 11.3744C1.32812 11.4503 1.3471 11.5262 1.39453 11.5926C1.79297 12.1429 2.45703 12.731 2.95982 13.1864C3.02623 13.2528 3.11161 13.2907 3.19699 13.2907C3.28237 13.2907 3.36775 13.2623 3.43415 13.2054L4.77176 12.1903C5.04688 12.3326 5.33147 12.4464 5.62556 12.5413L5.89118 14.2868C5.91016 14.4481 6.06194 14.5714 6.2327 14.5714H8.33873C8.50949 14.5714 8.6423 14.4576 8.68025 14.3058C8.83203 13.7366 8.88895 13.12 8.95536 12.5413C9.24944 12.4464 9.54353 12.3231 9.81864 12.1808L11.1278 13.2054C11.2037 13.2528 11.2891 13.2907 11.3744 13.2907C11.697 13.2907 12.9777 11.8962 13.2054 11.5926C13.2623 11.5262 13.2907 11.4598 13.2907 11.3744C13.2907 11.2891 13.2528 11.2037 13.1959 11.1373C12.8449 10.7104 12.5033 10.293 12.1808 9.82812C12.3326 9.55301 12.4464 9.26842 12.5508 8.96484L14.3058 8.69922C14.4576 8.67076 14.5714 8.5 14.5714 8.3577V6.25167Z" fill="#5C5C5C"/>
</svg>
