<svg width="15" height="15" viewBox="0 0 15 15" fill="none" xmlns="http://www.w3.org/2000/svg">
<path d="M14.3343 8.80357C14.3343 8.6423 14.2015 8.5 14.0307 8.5H12.2093C12.067 8.5 11.9721 8.58538 11.9247 8.71819C11.7634 9.09766 11.6496 9.45815 11.4219 9.82812C10.5396 11.2701 8.97433 12.1429 7.28572 12.1429C6.06194 12.1429 4.87612 11.6685 3.98438 10.8337L5.28404 9.53404C5.39788 9.4202 5.46429 9.26842 5.46429 9.10714C5.46429 8.77511 5.18917 8.5 4.85714 8.5H0.607143C0.275112 8.5 0 8.77511 0 9.10714V13.3571C0 13.6892 0.275112 13.9643 0.607143 13.9643C0.768415 13.9643 0.920201 13.8979 1.03404 13.784L2.25781 12.5603C3.60491 13.841 5.39788 14.5714 7.24777 14.5714C10.7483 14.5714 13.5184 12.2282 14.3248 8.86998C14.3343 8.851 14.3343 8.82254 14.3343 8.80357ZM14.5714 1.21429C14.5714 0.882255 14.2963 0.607142 13.9643 0.607142C13.803 0.607142 13.6512 0.673548 13.5374 0.787388L12.3041 2.01116C10.957 0.739955 9.14509 0 7.28572 0C3.78516 0 0.986607 2.33371 0.170759 5.70145C0.170759 5.72042 0.170759 5.74888 0.170759 5.76786C0.170759 5.92913 0.303571 6.07143 0.47433 6.07143H2.36217C2.50446 6.07143 2.59933 5.98605 2.64676 5.85324C2.80804 5.47377 2.92188 5.11328 3.14955 4.7433C4.03181 3.30134 5.5971 2.42857 7.28572 2.42857C8.50949 2.42857 9.69531 2.89341 10.5965 3.72824L9.28739 5.03739C9.17355 5.15123 9.10714 5.30301 9.10714 5.46429C9.10714 5.79632 9.38225 6.07143 9.71429 6.07143H13.9643C14.2963 6.07143 14.5714 5.79632 14.5714 5.46429V1.21429Z" fill="#5C5C5C"/>
</svg>
