<svg width="20" height="25" viewBox="0 0 20 25" fill="none" xmlns="http://www.w3.org/2000/svg">
<path d="M9 10H11V13H14V15H11V18H9V15H6V13H9V10Z" fill="#005533"/>
<path fill-rule="evenodd" clip-rule="evenodd" d="M2 0C0.895431 0 0 0.89543 0 2V23C0 24.1046 0.895431 25 2 25H18C19.1046 25 20 24.1046 20 23V7.41422C20 7.149 19.8946 6.89465 19.7071 6.70711L13.5858 0.585793C13.2107 0.21072 12.702 7.42271e-06 12.1716 7.05481e-06L2 0ZM2 23V2L11.1327 2.00001L12.1327 9H18V23H2ZM17.1716 7L13.3166 3.14502L13.8673 7H17.1716Z" fill="#005533"/>
</svg>
