<svg width="27" height="25" viewBox="0 0 27 25" fill="none" xmlns="http://www.w3.org/2000/svg">
<path d="M20 9V12H18V9H15V7H18V4H20V7H23V9H20Z" fill="#005533"/>
<path fill-rule="evenodd" clip-rule="evenodd" d="M19 16C23.4183 16 27 12.4183 27 8C27 3.58172 23.4183 0 19 0C14.5817 0 11 3.58172 11 8C11 11.6181 13.4018 14.6752 16.6981 15.6639C15.8393 17.8567 14.93 18.8257 13.7814 19.3362C13.0852 19.6456 12.2283 19.8198 11.1005 19.9094C10.177 19.9828 9.12092 19.9967 7.87382 19.9994C7.51188 18.5941 6.4054 17.4877 5 17.126V10.874C6.72523 10.4299 8 8.86384 8 7C8 4.79086 6.20914 3 4 3C1.79086 3 0 4.79086 0 7C0 8.86384 1.27477 10.4299 3 10.874V17.126C1.27477 17.5701 0 19.1362 0 21C0 23.2091 1.79086 25 4 25C5.86404 25 7.43028 23.725 7.87413 21.9994C9.13026 21.9969 10.2582 21.9826 11.2589 21.9031C12.4905 21.8052 13.6023 21.6044 14.5936 21.1638C16.506 20.3139 17.7212 18.689 18.7113 15.9949C18.8071 15.9983 18.9034 16 19 16ZM19 14C22.3137 14 25 11.3137 25 8C25 4.68629 22.3137 2 19 2C15.6863 2 13 4.68629 13 8C13 11.3137 15.6863 14 19 14ZM6 7C6 8.10457 5.10457 9 4 9C2.89543 9 2 8.10457 2 7C2 5.89543 2.89543 5 4 5C5.10457 5 6 5.89543 6 7ZM6 21C6 22.1046 5.10457 23 4 23C2.89543 23 2 22.1046 2 21C2 19.8954 2.89543 19 4 19C5.10457 19 6 19.8954 6 21Z" fill="#005533"/>
</svg>
