<svg width="12" height="13" viewBox="0 0 12 13" fill="none" xmlns="http://www.w3.org/2000/svg">
<path d="M11.3136 9.96983C11.3136 9.73267 11.2187 9.4955 11.048 9.32474L8.25892 6.53568L11.048 3.74662C11.2187 3.57586 11.3136 3.33869 11.3136 3.10153C11.3136 2.86436 11.2187 2.6272 11.048 2.45644L9.7578 1.16626C9.58705 0.995501 9.34988 0.900635 9.11271 0.900635C8.87555 0.900635 8.63839 0.995501 8.46763 1.16626L5.67856 3.95532L2.8895 1.16626C2.71874 0.995501 2.48158 0.900635 2.24441 0.900635C2.00725 0.900635 1.77008 0.995501 1.59932 1.16626L0.309143 2.45644C0.138384 2.6272 0.0435181 2.86436 0.0435181 3.10153C0.0435181 3.33869 0.138384 3.57586 0.309143 3.74662L3.09821 6.53568L0.309143 9.32474C0.138384 9.4955 0.0435181 9.73267 0.0435181 9.96983C0.0435181 10.207 0.138384 10.4442 0.309143 10.6149L1.59932 11.9051C1.77008 12.0759 2.00725 12.1707 2.24441 12.1707C2.48158 12.1707 2.71874 12.0759 2.8895 11.9051L5.67856 9.11604L8.46763 11.9051C8.63839 12.0759 8.87555 12.1707 9.11271 12.1707C9.34988 12.1707 9.58705 12.0759 9.7578 11.9051L11.048 10.6149C11.2187 10.4442 11.3136 10.207 11.3136 9.96983Z" fill="#5C5C5C"/>
</svg>
